<svg width="547" height="1024" viewBox="0 0 547 1024" fill="none" xmlns="http://www.w3.org/2000/svg">
<rect width="547" height="1024" fill="url(#paint0_linear_1_27)"/>
<g filter="url(#filter0_d_1_27)">
<mask id="path-2-outside-1_1_27" maskUnits="userSpaceOnUse" x="58" y="242" width="415" height="450" fill="black">
<rect fill="white" x="58" y="242" width="415" height="450"/>
<path d="M134.812 338L144 328.75H145.312C151.562 328.75 155.875 327.333 158.25 324.5C160.625 321.625 162.812 315.229 164.812 305.312L175.75 250.375C167.167 250.375 160.229 252.688 154.938 257.312C149.646 261.896 147 267.896 147 275.312V276.688L134.875 282.562C135.917 269.812 140.875 260.458 149.75 254.5C158.625 248.5 171.979 245.5 189.812 245.5C202.396 245.5 211.375 246.854 216.75 249.562C222.167 252.271 224.875 256.771 224.875 263.062C224.875 275.771 215.292 284.646 196.125 289.688C212.208 294.854 220.25 301.938 220.25 310.938C220.25 318.979 215.854 325.771 207.062 331.312C198.271 336.812 187.458 339.562 174.625 339.562L159.812 339.062L134.812 338ZM181.312 288.25H184.562C192.271 288.25 198.646 285.979 203.688 281.438C208.729 276.854 211.25 271.062 211.25 264.062C211.25 254.229 204.375 249.312 190.625 249.312H189.062L181.312 288.25ZM158.062 329.875L164.562 331.312C170.938 332.688 177.646 333.375 184.688 333.375C199.021 333.375 206.188 326.688 206.188 313.312C206.188 306.771 204.042 301.625 199.75 297.875C195.5 294.083 189.688 292.188 182.312 292.188H180.5L179.125 299.188C176.375 312.854 169.354 323.083 158.062 329.875ZM288.438 304.062H287.375C275.542 327.729 264 339.562 252.75 339.562C246.083 339.562 242.75 335.625 242.75 327.75C242.75 325.5 243.083 322.688 243.75 319.312L249.812 288.625C250.771 283.833 251.25 280.708 251.25 279.25C251.25 276.667 250.021 275.375 247.562 275.375C243.479 275.375 237.271 279.938 228.938 289.062L230.062 283.312C239.146 273.521 247.333 268.625 254.625 268.625C260.667 268.625 263.688 271.75 263.688 278C263.688 280.083 263.188 283.625 262.188 288.625L256.062 319.375C255.521 322.125 255.25 324.083 255.25 325.25C255.25 328.625 256.479 330.312 258.938 330.312C262.062 330.312 266.792 326.542 273.125 319C279.5 311.417 285.354 302.604 290.688 292.562L295.188 270.125L308.438 269.375L303.812 288.625L297.688 319.5C296.729 324.292 296.25 327.417 296.25 328.875C296.25 331.5 297.479 332.812 299.938 332.812C304.062 332.812 310.271 328.229 318.562 319.062L317.438 324.875C308.312 334.667 300.125 339.562 292.875 339.562C286.833 339.562 283.812 336.417 283.812 330.125C283.812 328 284.312 324.458 285.312 319.5L288.438 304.062ZM326.938 377.812L335.562 369.062C339.688 371.479 344.104 372.688 348.812 372.688C354.604 372.688 359.104 370.625 362.312 366.5C365.562 362.375 368.5 354.875 371.125 344L380.812 304.062H380C375.125 313.979 370.167 322.125 365.125 328.5C360.083 334.833 356.104 338 353.188 338C350.146 338 347.854 336.375 346.312 333.125C344.812 329.833 343.5 323.75 342.375 314.875L339.375 290.562C338.25 281.562 336.354 277.062 333.688 277.062C331.104 277.062 326.917 280.708 321.125 288L322.375 281.625C328.917 272.958 335.104 268.625 340.938 268.625C344.271 268.625 346.646 270.125 348.062 273.125C349.479 276.125 350.812 282.438 352.062 292.062L354.688 312.938C355.646 320.396 357.229 324.125 359.438 324.125C362.021 324.125 365.667 320.521 370.375 313.312C371.208 311.979 375.854 304.25 384.312 290.125L389.062 270.125L402.375 269.375L396.812 288.875L385.875 333.312C382.167 348.354 376.25 359.833 368.125 367.75C360.042 375.667 350.125 379.625 338.375 379.625C333.917 379.625 330.104 379.021 326.938 377.812ZM65.125 512L74.4375 502.75H75.625L78.3125 502.812C83.2292 502.812 86.8125 501.188 89.0625 497.938C91.3125 494.646 93.4375 488.021 95.4375 478.062L106.062 424.375C97.5208 424.375 90.5833 426.688 85.25 431.312C79.9583 435.896 77.3125 441.896 77.3125 449.312L77.375 450.688L65.1875 456.562C66.3542 443.604 71.375 434.188 80.25 428.312C89.125 422.396 102.771 419.438 121.188 419.438C134.438 419.438 143.875 420.875 149.5 423.75C155.167 426.583 158 431.333 158 438C158 443.333 156.062 448.771 152.188 454.312C148.312 459.854 143.438 464.125 137.562 467.125C130.771 470.542 123.021 472.25 114.312 472.25H112.625L115 468.375H116.125C124.125 468.375 130.833 465.75 136.25 460.5C141.667 455.25 144.375 448.729 144.375 440.938C144.375 429.188 136.042 423.312 119.375 423.312L109.312 473.938C106.812 486.646 99.9167 496.604 88.625 503.812L112.688 504.312L104.062 513.562L65.125 512ZM160.812 512.75L165.438 493.5L174 450.312C177 435.229 182.646 423.5 190.938 415.125C199.271 406.708 209.396 402.5 221.312 402.5C225.438 402.5 229.188 402.938 232.562 403.812L224 412.75C219.125 410.542 214.958 409.438 211.5 409.438C204.875 409.438 199.896 411.854 196.562 416.688C193.229 421.479 190.229 430.625 187.562 444.125L180.812 478.062H181.812C186.979 467.396 192.854 458.833 199.438 452.375C206.021 445.875 212.125 442.625 217.75 442.625C224.625 442.625 228.062 446.417 228.062 454C228.062 456.5 227.708 459.5 227 463L220.938 493.5C219.979 498.292 219.5 501.417 219.5 502.875C219.5 505.5 220.729 506.812 223.188 506.812C227.354 506.812 233.562 502.229 241.812 493.062L240.688 498.875C231.562 508.667 223.375 513.562 216.125 513.562C210.125 513.562 207.125 510.417 207.125 504.125C207.125 502.042 207.604 498.5 208.562 493.5L214.688 462.875C215.146 460.5 215.375 458.5 215.375 456.875C215.375 453.5 214.125 451.812 211.625 451.812C203.708 451.812 192.667 464.438 178.5 489.688L174 512L160.812 512.75ZM266.688 513.562C261.229 513.562 256.667 511.438 253 507.188C249.375 502.896 247.562 497.562 247.562 491.188C247.562 479.188 252.104 468.104 261.188 457.938C270.271 447.729 280.167 442.625 290.875 442.625C296.667 442.625 301.438 444.708 305.188 448.875C308.938 453.042 310.812 458.354 310.812 464.812C310.812 477.271 306.271 488.521 297.188 498.562C288.104 508.562 277.938 513.562 266.688 513.562ZM273.812 508.125C279.979 508.125 285.396 504.167 290.062 496.25C294.771 488.292 297.125 479.062 297.125 468.562C297.125 454.771 292.917 447.875 284.5 447.875C278.542 447.875 273.167 451.979 268.375 460.188C263.625 468.354 261.25 477.562 261.25 487.812C261.25 501.354 265.438 508.125 273.812 508.125ZM326.438 512.75L331.062 493.5L337.188 462.625C338.146 457.833 338.625 454.708 338.625 453.25C338.625 450.667 337.396 449.375 334.938 449.375C330.854 449.375 324.646 453.938 316.312 463.062L317.438 457.312C326.521 447.521 334.708 442.625 342 442.625C348 442.625 351 445.75 351 452C351 454.125 350.521 457.667 349.562 462.625L346.5 478.062H347.438C352.646 467.396 358.521 458.833 365.062 452.375C371.646 445.875 377.771 442.625 383.438 442.625C390.271 442.625 393.688 446.417 393.688 454C393.688 456.458 393.333 459.458 392.625 463L386.562 493.5C385.604 498.333 385.125 501.458 385.125 502.875C385.125 505.5 386.354 506.812 388.812 506.812C392.979 506.812 399.208 502.229 407.5 493.062L406.312 498.875C397.229 508.667 389.042 513.562 381.75 513.562C375.75 513.562 372.75 510.417 372.75 504.125C372.75 502.042 373.25 498.5 374.25 493.5L380.312 462.875C380.812 460.5 381.062 458.5 381.062 456.875C381.062 453.5 379.812 451.812 377.312 451.812C369.354 451.812 358.312 464.438 344.188 489.688L339.625 512L326.438 512.75ZM467.938 494.938L467 499.75C453.75 508.958 442.458 513.562 433.125 513.562C427.208 513.562 422.396 511.5 418.688 507.375C415.021 503.208 413.188 497.833 413.188 491.25C413.188 479.5 417.688 468.458 426.688 458.125C435.688 447.75 445.292 442.562 455.5 442.562C459.208 442.562 462.208 443.812 464.5 446.312C466.792 448.812 467.938 452.062 467.938 456.062C467.938 464.062 463.854 470.938 455.688 476.688C447.521 482.438 437.771 485.312 426.438 485.312L426.375 488.125C426.375 500.292 430.833 506.375 439.75 506.375C447.458 506.375 456.854 502.562 467.938 494.938ZM426.562 481.438C435.896 480.688 443.188 478.292 448.438 474.25C453.688 470.167 456.312 464.896 456.312 458.438C456.312 452.062 454 448.875 449.375 448.875C444.375 448.875 439.542 452.208 434.875 458.875C430.208 465.5 427.438 473.021 426.562 481.438ZM178.5 688.312C168.25 688.312 160.125 685.125 154.125 678.75C148.167 672.375 145.188 663.729 145.188 652.812C145.188 636.438 150.812 622.062 162.062 609.688C173.354 597.312 186.458 591.125 201.375 591.125C211.542 591.125 219.583 594.271 225.5 600.562C231.458 606.812 234.438 615.312 234.438 626.062C234.438 643.146 228.938 657.792 217.938 670C206.979 682.208 193.833 688.312 178.5 688.312ZM180.938 684.062C191.771 684.062 201.062 678.333 208.812 666.875C216.562 655.417 220.438 641.667 220.438 625.625C220.438 605.292 213.375 595.125 199.25 595.125C188.417 595.125 179.104 600.792 171.312 612.125C163.521 623.458 159.625 637.042 159.625 652.875C159.625 673.667 166.729 684.062 180.938 684.062ZM247.75 686.75L252.375 667.5L258.5 636.625C259.458 631.833 259.938 628.708 259.938 627.25C259.938 624.667 258.708 623.375 256.25 623.375C252.167 623.375 245.958 627.938 237.625 637.062L238.75 631.312C247.833 621.521 256.021 616.625 263.312 616.625C269.312 616.625 272.312 619.75 272.312 626C272.312 628.125 271.833 631.667 270.875 636.625L267.812 652.062H268.75C273.958 641.396 279.833 632.833 286.375 626.375C292.958 619.875 299.083 616.625 304.75 616.625C311.583 616.625 315 620.417 315 628C315 630.458 314.646 633.458 313.938 637L307.875 667.5C306.917 672.333 306.438 675.458 306.438 676.875C306.438 679.5 307.667 680.812 310.125 680.812C314.292 680.812 320.521 676.229 328.812 667.062L327.625 672.875C318.542 682.667 310.354 687.562 303.062 687.562C297.062 687.562 294.062 684.417 294.062 678.125C294.062 676.042 294.562 672.5 295.562 667.5L301.625 636.875C302.125 634.5 302.375 632.5 302.375 630.875C302.375 627.5 301.125 625.812 298.625 625.812C290.667 625.812 279.625 638.438 265.5 663.688L260.938 686L247.75 686.75ZM389.25 668.938L388.312 673.75C375.062 682.958 363.771 687.562 354.438 687.562C348.521 687.562 343.708 685.5 340 681.375C336.333 677.208 334.5 671.833 334.5 665.25C334.5 653.5 339 642.458 348 632.125C357 621.75 366.604 616.562 376.812 616.562C380.521 616.562 383.521 617.812 385.812 620.312C388.104 622.812 389.25 626.062 389.25 630.062C389.25 638.062 385.167 644.938 377 650.688C368.833 656.438 359.083 659.312 347.75 659.312L347.688 662.125C347.688 674.292 352.146 680.375 361.062 680.375C368.771 680.375 378.167 676.562 389.25 668.938ZM347.875 655.438C357.208 654.688 364.5 652.292 369.75 648.25C375 644.167 377.625 638.896 377.625 632.438C377.625 626.062 375.312 622.875 370.688 622.875C365.688 622.875 360.854 626.208 356.188 632.875C351.521 639.5 348.75 647.021 347.875 655.438Z"/>
</mask>
<path d="M134.812 338L144 328.75H145.312C151.562 328.75 155.875 327.333 158.25 324.5C160.625 321.625 162.812 315.229 164.812 305.312L175.75 250.375C167.167 250.375 160.229 252.688 154.938 257.312C149.646 261.896 147 267.896 147 275.312V276.688L134.875 282.562C135.917 269.812 140.875 260.458 149.75 254.5C158.625 248.5 171.979 245.5 189.812 245.5C202.396 245.5 211.375 246.854 216.75 249.562C222.167 252.271 224.875 256.771 224.875 263.062C224.875 275.771 215.292 284.646 196.125 289.688C212.208 294.854 220.25 301.938 220.25 310.938C220.25 318.979 215.854 325.771 207.062 331.312C198.271 336.812 187.458 339.562 174.625 339.562L159.812 339.062L134.812 338ZM181.312 288.25H184.562C192.271 288.25 198.646 285.979 203.688 281.438C208.729 276.854 211.25 271.062 211.25 264.062C211.25 254.229 204.375 249.312 190.625 249.312H189.062L181.312 288.25ZM158.062 329.875L164.562 331.312C170.938 332.688 177.646 333.375 184.688 333.375C199.021 333.375 206.188 326.688 206.188 313.312C206.188 306.771 204.042 301.625 199.75 297.875C195.5 294.083 189.688 292.188 182.312 292.188H180.5L179.125 299.188C176.375 312.854 169.354 323.083 158.062 329.875ZM288.438 304.062H287.375C275.542 327.729 264 339.562 252.75 339.562C246.083 339.562 242.75 335.625 242.75 327.75C242.75 325.5 243.083 322.688 243.75 319.312L249.812 288.625C250.771 283.833 251.25 280.708 251.25 279.25C251.25 276.667 250.021 275.375 247.562 275.375C243.479 275.375 237.271 279.938 228.938 289.062L230.062 283.312C239.146 273.521 247.333 268.625 254.625 268.625C260.667 268.625 263.688 271.75 263.688 278C263.688 280.083 263.188 283.625 262.188 288.625L256.062 319.375C255.521 322.125 255.25 324.083 255.25 325.25C255.25 328.625 256.479 330.312 258.938 330.312C262.062 330.312 266.792 326.542 273.125 319C279.5 311.417 285.354 302.604 290.688 292.562L295.188 270.125L308.438 269.375L303.812 288.625L297.688 319.5C296.729 324.292 296.25 327.417 296.25 328.875C296.25 331.5 297.479 332.812 299.938 332.812C304.062 332.812 310.271 328.229 318.562 319.062L317.438 324.875C308.312 334.667 300.125 339.562 292.875 339.562C286.833 339.562 283.812 336.417 283.812 330.125C283.812 328 284.312 324.458 285.312 319.5L288.438 304.062ZM326.938 377.812L335.562 369.062C339.688 371.479 344.104 372.688 348.812 372.688C354.604 372.688 359.104 370.625 362.312 366.5C365.562 362.375 368.5 354.875 371.125 344L380.812 304.062H380C375.125 313.979 370.167 322.125 365.125 328.5C360.083 334.833 356.104 338 353.188 338C350.146 338 347.854 336.375 346.312 333.125C344.812 329.833 343.5 323.75 342.375 314.875L339.375 290.562C338.25 281.562 336.354 277.062 333.688 277.062C331.104 277.062 326.917 280.708 321.125 288L322.375 281.625C328.917 272.958 335.104 268.625 340.938 268.625C344.271 268.625 346.646 270.125 348.062 273.125C349.479 276.125 350.812 282.438 352.062 292.062L354.688 312.938C355.646 320.396 357.229 324.125 359.438 324.125C362.021 324.125 365.667 320.521 370.375 313.312C371.208 311.979 375.854 304.25 384.312 290.125L389.062 270.125L402.375 269.375L396.812 288.875L385.875 333.312C382.167 348.354 376.25 359.833 368.125 367.75C360.042 375.667 350.125 379.625 338.375 379.625C333.917 379.625 330.104 379.021 326.938 377.812ZM65.125 512L74.4375 502.75H75.625L78.3125 502.812C83.2292 502.812 86.8125 501.188 89.0625 497.938C91.3125 494.646 93.4375 488.021 95.4375 478.062L106.062 424.375C97.5208 424.375 90.5833 426.688 85.25 431.312C79.9583 435.896 77.3125 441.896 77.3125 449.312L77.375 450.688L65.1875 456.562C66.3542 443.604 71.375 434.188 80.25 428.312C89.125 422.396 102.771 419.438 121.188 419.438C134.438 419.438 143.875 420.875 149.5 423.75C155.167 426.583 158 431.333 158 438C158 443.333 156.062 448.771 152.188 454.312C148.312 459.854 143.438 464.125 137.562 467.125C130.771 470.542 123.021 472.25 114.312 472.25H112.625L115 468.375H116.125C124.125 468.375 130.833 465.75 136.25 460.5C141.667 455.25 144.375 448.729 144.375 440.938C144.375 429.188 136.042 423.312 119.375 423.312L109.312 473.938C106.812 486.646 99.9167 496.604 88.625 503.812L112.688 504.312L104.062 513.562L65.125 512ZM160.812 512.75L165.438 493.5L174 450.312C177 435.229 182.646 423.5 190.938 415.125C199.271 406.708 209.396 402.5 221.312 402.5C225.438 402.5 229.188 402.938 232.562 403.812L224 412.75C219.125 410.542 214.958 409.438 211.5 409.438C204.875 409.438 199.896 411.854 196.562 416.688C193.229 421.479 190.229 430.625 187.562 444.125L180.812 478.062H181.812C186.979 467.396 192.854 458.833 199.438 452.375C206.021 445.875 212.125 442.625 217.75 442.625C224.625 442.625 228.062 446.417 228.062 454C228.062 456.5 227.708 459.5 227 463L220.938 493.5C219.979 498.292 219.5 501.417 219.5 502.875C219.5 505.5 220.729 506.812 223.188 506.812C227.354 506.812 233.562 502.229 241.812 493.062L240.688 498.875C231.562 508.667 223.375 513.562 216.125 513.562C210.125 513.562 207.125 510.417 207.125 504.125C207.125 502.042 207.604 498.5 208.562 493.5L214.688 462.875C215.146 460.5 215.375 458.5 215.375 456.875C215.375 453.5 214.125 451.812 211.625 451.812C203.708 451.812 192.667 464.438 178.5 489.688L174 512L160.812 512.75ZM266.688 513.562C261.229 513.562 256.667 511.438 253 507.188C249.375 502.896 247.562 497.562 247.562 491.188C247.562 479.188 252.104 468.104 261.188 457.938C270.271 447.729 280.167 442.625 290.875 442.625C296.667 442.625 301.438 444.708 305.188 448.875C308.938 453.042 310.812 458.354 310.812 464.812C310.812 477.271 306.271 488.521 297.188 498.562C288.104 508.562 277.938 513.562 266.688 513.562ZM273.812 508.125C279.979 508.125 285.396 504.167 290.062 496.25C294.771 488.292 297.125 479.062 297.125 468.562C297.125 454.771 292.917 447.875 284.5 447.875C278.542 447.875 273.167 451.979 268.375 460.188C263.625 468.354 261.25 477.562 261.25 487.812C261.25 501.354 265.438 508.125 273.812 508.125ZM326.438 512.75L331.062 493.5L337.188 462.625C338.146 457.833 338.625 454.708 338.625 453.25C338.625 450.667 337.396 449.375 334.938 449.375C330.854 449.375 324.646 453.938 316.312 463.062L317.438 457.312C326.521 447.521 334.708 442.625 342 442.625C348 442.625 351 445.75 351 452C351 454.125 350.521 457.667 349.562 462.625L346.5 478.062H347.438C352.646 467.396 358.521 458.833 365.062 452.375C371.646 445.875 377.771 442.625 383.438 442.625C390.271 442.625 393.688 446.417 393.688 454C393.688 456.458 393.333 459.458 392.625 463L386.562 493.5C385.604 498.333 385.125 501.458 385.125 502.875C385.125 505.5 386.354 506.812 388.812 506.812C392.979 506.812 399.208 502.229 407.5 493.062L406.312 498.875C397.229 508.667 389.042 513.562 381.75 513.562C375.75 513.562 372.75 510.417 372.75 504.125C372.75 502.042 373.25 498.5 374.25 493.5L380.312 462.875C380.812 460.5 381.062 458.5 381.062 456.875C381.062 453.5 379.812 451.812 377.312 451.812C369.354 451.812 358.312 464.438 344.188 489.688L339.625 512L326.438 512.75ZM467.938 494.938L467 499.75C453.75 508.958 442.458 513.562 433.125 513.562C427.208 513.562 422.396 511.5 418.688 507.375C415.021 503.208 413.188 497.833 413.188 491.25C413.188 479.5 417.688 468.458 426.688 458.125C435.688 447.75 445.292 442.562 455.5 442.562C459.208 442.562 462.208 443.812 464.5 446.312C466.792 448.812 467.938 452.062 467.938 456.062C467.938 464.062 463.854 470.938 455.688 476.688C447.521 482.438 437.771 485.312 426.438 485.312L426.375 488.125C426.375 500.292 430.833 506.375 439.75 506.375C447.458 506.375 456.854 502.562 467.938 494.938ZM426.562 481.438C435.896 480.688 443.188 478.292 448.438 474.25C453.688 470.167 456.312 464.896 456.312 458.438C456.312 452.062 454 448.875 449.375 448.875C444.375 448.875 439.542 452.208 434.875 458.875C430.208 465.5 427.438 473.021 426.562 481.438ZM178.5 688.312C168.25 688.312 160.125 685.125 154.125 678.75C148.167 672.375 145.188 663.729 145.188 652.812C145.188 636.438 150.812 622.062 162.062 609.688C173.354 597.312 186.458 591.125 201.375 591.125C211.542 591.125 219.583 594.271 225.5 600.562C231.458 606.812 234.438 615.312 234.438 626.062C234.438 643.146 228.938 657.792 217.938 670C206.979 682.208 193.833 688.312 178.5 688.312ZM180.938 684.062C191.771 684.062 201.062 678.333 208.812 666.875C216.562 655.417 220.438 641.667 220.438 625.625C220.438 605.292 213.375 595.125 199.25 595.125C188.417 595.125 179.104 600.792 171.312 612.125C163.521 623.458 159.625 637.042 159.625 652.875C159.625 673.667 166.729 684.062 180.938 684.062ZM247.75 686.75L252.375 667.5L258.5 636.625C259.458 631.833 259.938 628.708 259.938 627.25C259.938 624.667 258.708 623.375 256.25 623.375C252.167 623.375 245.958 627.938 237.625 637.062L238.75 631.312C247.833 621.521 256.021 616.625 263.312 616.625C269.312 616.625 272.312 619.75 272.312 626C272.312 628.125 271.833 631.667 270.875 636.625L267.812 652.062H268.75C273.958 641.396 279.833 632.833 286.375 626.375C292.958 619.875 299.083 616.625 304.75 616.625C311.583 616.625 315 620.417 315 628C315 630.458 314.646 633.458 313.938 637L307.875 667.5C306.917 672.333 306.438 675.458 306.438 676.875C306.438 679.5 307.667 680.812 310.125 680.812C314.292 680.812 320.521 676.229 328.812 667.062L327.625 672.875C318.542 682.667 310.354 687.562 303.062 687.562C297.062 687.562 294.062 684.417 294.062 678.125C294.062 676.042 294.562 672.5 295.562 667.5L301.625 636.875C302.125 634.5 302.375 632.5 302.375 630.875C302.375 627.5 301.125 625.812 298.625 625.812C290.667 625.812 279.625 638.438 265.5 663.688L260.938 686L247.75 686.75ZM389.25 668.938L388.312 673.75C375.062 682.958 363.771 687.562 354.438 687.562C348.521 687.562 343.708 685.5 340 681.375C336.333 677.208 334.5 671.833 334.5 665.25C334.5 653.5 339 642.458 348 632.125C357 621.75 366.604 616.562 376.812 616.562C380.521 616.562 383.521 617.812 385.812 620.312C388.104 622.812 389.25 626.062 389.25 630.062C389.25 638.062 385.167 644.938 377 650.688C368.833 656.438 359.083 659.312 347.75 659.312L347.688 662.125C347.688 674.292 352.146 680.375 361.062 680.375C368.771 680.375 378.167 676.562 389.25 668.938ZM347.875 655.438C357.208 654.688 364.5 652.292 369.75 648.25C375 644.167 377.625 638.896 377.625 632.438C377.625 626.062 375.312 622.875 370.688 622.875C365.688 622.875 360.854 626.208 356.188 632.875C351.521 639.5 348.75 647.021 347.875 655.438Z" fill="#FFEDD3"/>
<path d="M134.812 338L132.684 335.886L127.894 340.709L134.685 340.997L134.812 338ZM144 328.75V325.75H142.751L141.871 326.636L144 328.75ZM158.25 324.5L160.549 326.427L160.556 326.419L160.563 326.411L158.25 324.5ZM164.812 305.312L167.753 305.906L167.755 305.898L164.812 305.312ZM175.75 250.375L178.692 250.961L179.406 247.375H175.75V250.375ZM154.938 257.312L156.902 259.58L156.912 259.571L154.938 257.312ZM147 276.688L148.308 279.387L150 278.568V276.688H147ZM134.875 282.562L131.885 282.318L131.457 287.552L136.183 285.262L134.875 282.562ZM149.75 254.5L151.422 256.991L151.43 256.985L149.75 254.5ZM216.75 249.562L215.4 252.242L215.408 252.246L216.75 249.562ZM196.125 289.688L195.362 286.786L185.423 289.401L195.207 292.544L196.125 289.688ZM207.062 331.312L208.654 333.856L208.662 333.85L207.062 331.312ZM174.625 339.562L174.524 342.561L174.574 342.562H174.625V339.562ZM159.812 339.062L159.685 342.06L159.698 342.06L159.711 342.061L159.812 339.062ZM181.312 288.25L178.37 287.664L177.657 291.25H181.312V288.25ZM203.688 281.438L205.695 283.666L205.706 283.657L203.688 281.438ZM189.062 249.312V246.312H186.601L186.12 248.727L189.062 249.312ZM158.062 329.875L156.516 327.304L150.072 331.18L157.415 332.804L158.062 329.875ZM164.562 331.312L163.915 334.242L163.922 334.243L163.93 334.245L164.562 331.312ZM199.75 297.875L197.753 300.114L197.764 300.124L197.776 300.134L199.75 297.875ZM180.5 292.188V289.188H178.032L177.556 291.609L180.5 292.188ZM179.125 299.188L182.066 299.779L182.069 299.766L179.125 299.188ZM136.941 340.114L146.129 330.864L141.871 326.636L132.684 335.886L136.941 340.114ZM144 331.75H145.312V325.75H144V331.75ZM145.312 331.75C151.858 331.75 157.31 330.291 160.549 326.427L155.951 322.573C154.44 324.375 151.267 325.75 145.312 325.75V331.75ZM160.563 326.411C162.097 324.553 163.379 321.826 164.51 318.518C165.662 315.152 166.739 310.936 167.753 305.906L161.872 304.719C160.886 309.606 159.87 313.546 158.833 316.576C157.777 319.663 156.778 321.572 155.937 322.589L160.563 326.411ZM167.755 305.898L178.692 250.961L172.808 249.789L161.87 304.727L167.755 305.898ZM175.75 247.375C166.608 247.375 158.916 249.851 152.963 255.054L156.912 259.571C161.542 255.524 167.725 253.375 175.75 253.375V247.375ZM152.973 255.045C146.981 260.235 144 267.084 144 275.312H150C150 268.707 152.311 263.556 156.902 259.58L152.973 255.045ZM144 275.312V276.688H150V275.312H144ZM145.692 273.988L133.567 279.863L136.183 285.262L148.308 279.387L145.692 273.988ZM137.865 282.807C138.849 270.768 143.457 262.338 151.422 256.991L148.078 252.009C138.293 258.579 132.985 268.857 131.885 282.318L137.865 282.807ZM151.43 256.985C159.578 251.477 172.22 248.5 189.812 248.5V242.5C171.739 242.5 157.672 245.523 148.07 252.015L151.43 256.985ZM189.812 248.5C202.331 248.5 210.697 249.872 215.4 252.242L218.1 246.883C212.053 243.837 202.46 242.5 189.812 242.5V248.5ZM215.408 252.246C217.687 253.385 219.255 254.824 220.273 256.516C221.295 258.214 221.875 260.353 221.875 263.062H227.875C227.875 259.48 227.1 256.224 225.414 253.422C223.724 250.613 221.229 248.448 218.092 246.879L215.408 252.246ZM221.875 263.062C221.875 268.555 219.847 273.161 215.649 277.049C211.358 281.023 204.695 284.331 195.362 286.786L196.888 292.589C206.722 290.002 214.434 286.352 219.726 281.451C225.111 276.464 227.875 270.278 227.875 263.062H221.875ZM195.207 292.544C203.058 295.066 208.652 297.969 212.236 301.126C215.745 304.217 217.25 307.464 217.25 310.938H223.25C223.25 305.411 220.734 300.616 216.202 296.624C211.744 292.697 205.276 289.476 197.043 286.831L195.207 292.544ZM217.25 310.938C217.25 317.649 213.671 323.6 205.463 328.775L208.662 333.85C218.037 327.941 223.25 320.31 223.25 310.938H217.25ZM205.471 328.769C197.259 333.907 187.029 336.562 174.625 336.562V342.562C187.888 342.562 199.283 339.718 208.654 333.856L205.471 328.769ZM174.726 336.564L159.914 336.064L159.711 342.061L174.524 342.561L174.726 336.564ZM159.94 336.065L134.94 335.003L134.685 340.997L159.685 342.06L159.94 336.065ZM181.312 291.25H184.562V285.25H181.312V291.25ZM184.562 291.25C192.904 291.25 200.027 288.772 205.695 283.666L201.68 279.209C197.264 283.186 191.637 285.25 184.562 285.25V291.25ZM205.706 283.657C211.392 278.488 214.25 271.881 214.25 264.062H208.25C208.25 270.244 206.067 275.22 201.669 279.218L205.706 283.657ZM214.25 264.062C214.25 258.359 212.201 253.679 207.839 250.56C203.663 247.573 197.767 246.312 190.625 246.312V252.312C197.233 252.312 201.65 253.51 204.349 255.44C206.862 257.238 208.25 259.933 208.25 264.062H214.25ZM190.625 246.312H189.062V252.312H190.625V246.312ZM186.12 248.727L178.37 287.664L184.255 288.836L192.005 249.898L186.12 248.727ZM157.415 332.804L163.915 334.242L165.21 328.383L158.71 326.946L157.415 332.804ZM163.93 334.245C170.529 335.668 177.45 336.375 184.688 336.375V330.375C177.842 330.375 171.346 329.707 165.195 328.38L163.93 334.245ZM184.688 336.375C192.267 336.375 198.51 334.611 202.859 330.553C207.247 326.458 209.188 320.518 209.188 313.312H203.188C203.188 319.482 201.544 323.573 198.766 326.166C195.948 328.795 191.441 330.375 184.688 330.375V336.375ZM209.188 313.312C209.188 306.047 206.767 300.023 201.724 295.616L197.776 300.134C201.316 303.227 203.188 307.495 203.188 313.312H209.188ZM201.747 295.636C196.801 291.224 190.201 289.188 182.312 289.188V295.188C189.174 295.188 194.199 296.943 197.753 300.114L201.747 295.636ZM182.312 289.188H180.5V295.188H182.312V289.188ZM177.556 291.609L176.181 298.609L182.069 299.766L183.444 292.766L177.556 291.609ZM176.184 298.596C173.589 311.49 167.04 320.975 156.516 327.304L159.609 332.446C171.669 325.192 179.161 314.218 182.066 299.779L176.184 298.596ZM288.438 304.062L291.378 304.658L292.106 301.062H288.438V304.062ZM287.375 304.062V301.062H285.521L284.692 302.721L287.375 304.062ZM243.75 319.312L240.807 318.731L240.807 318.731L243.75 319.312ZM249.812 288.625L246.871 288.037L246.869 288.044L249.812 288.625ZM228.938 289.062L225.993 288.486L223.939 298.984L231.153 291.086L228.938 289.062ZM230.062 283.312L227.863 281.272L227.282 281.898L227.118 282.736L230.062 283.312ZM262.188 288.625L259.246 288.037L259.245 288.039L262.188 288.625ZM256.062 319.375L253.12 318.789L253.119 318.795L256.062 319.375ZM273.125 319L270.829 317.07L270.828 317.071L273.125 319ZM290.688 292.562L293.337 293.97L293.543 293.582L293.629 293.152L290.688 292.562ZM295.188 270.125L295.018 267.13L292.702 267.261L292.246 269.535L295.188 270.125ZM308.438 269.375L311.354 270.076L312.297 266.152L308.268 266.38L308.438 269.375ZM303.812 288.625L300.896 287.924L300.882 287.982L300.87 288.041L303.812 288.625ZM297.688 319.5L300.629 320.088L300.63 320.084L297.688 319.5ZM318.562 319.062L321.508 319.633L323.551 309.075L316.338 317.05L318.562 319.062ZM317.438 324.875L319.632 326.92L320.219 326.29L320.383 325.445L317.438 324.875ZM285.312 319.5L282.372 318.905L282.372 318.907L285.312 319.5ZM288.438 301.062H287.375V307.062H288.438V301.062ZM284.692 302.721C278.841 314.422 273.161 322.99 267.696 328.593C262.225 334.202 257.253 336.562 252.75 336.562V342.562C259.497 342.562 265.921 339.006 271.991 332.782C278.069 326.551 284.076 317.369 290.058 305.404L284.692 302.721ZM252.75 336.562C250.022 336.562 248.479 335.781 247.54 334.671C246.519 333.466 245.75 331.336 245.75 327.75H239.75C239.75 332.039 240.647 335.815 242.96 338.548C245.354 341.376 248.811 342.562 252.75 342.562V336.562ZM245.75 327.75C245.75 325.769 246.047 323.166 246.693 319.894L240.807 318.731C240.12 322.209 239.75 325.231 239.75 327.75H245.75ZM246.693 319.894L252.756 289.206L246.869 288.044L240.807 318.731L246.693 319.894ZM252.754 289.213C253.698 284.495 254.25 281.063 254.25 279.25H248.25C248.25 280.354 247.844 283.171 246.871 288.037L252.754 289.213ZM254.25 279.25C254.25 277.532 253.844 275.686 252.501 274.276C251.132 272.837 249.293 272.375 247.562 272.375V278.375C247.923 278.375 248.112 278.423 248.184 278.449C248.24 278.468 248.206 278.465 248.155 278.412C248.042 278.293 248.25 278.385 248.25 279.25H254.25ZM247.562 272.375C244.524 272.375 241.294 274.008 238.067 276.379C234.739 278.826 230.953 282.407 226.722 287.039L231.153 291.086C235.256 286.593 238.741 283.331 241.62 281.214C244.602 279.023 246.517 278.375 247.562 278.375V272.375ZM231.882 289.639L233.007 283.889L227.118 282.736L225.993 288.486L231.882 289.639ZM232.262 285.353C241.21 275.707 248.642 271.625 254.625 271.625V265.625C246.025 265.625 237.082 271.335 227.863 281.272L232.262 285.353ZM254.625 271.625C257.157 271.625 258.511 272.274 259.265 273.054C260.037 273.852 260.688 275.312 260.688 278H266.688C266.688 274.438 265.828 271.21 263.579 268.884C261.312 266.538 258.135 265.625 254.625 265.625V271.625ZM260.688 278C260.688 279.754 260.247 283.032 259.246 288.037L265.129 289.213C266.128 284.218 266.688 280.413 266.688 278H260.688ZM259.245 288.039L253.12 318.789L259.005 319.961L265.13 289.211L259.245 288.039ZM253.119 318.795C252.577 321.545 252.25 323.76 252.25 325.25H258.25C258.25 324.406 258.464 322.705 259.006 319.955L253.119 318.795ZM252.25 325.25C252.25 327.213 252.591 329.227 253.747 330.813C255.031 332.576 256.943 333.312 258.938 333.312V327.312C258.801 327.312 258.708 327.301 258.651 327.289C258.622 327.284 258.603 327.278 258.59 327.275C258.578 327.271 258.573 327.268 258.573 327.268C258.572 327.268 258.576 327.27 258.581 327.273C258.587 327.276 258.593 327.281 258.598 327.285C258.61 327.295 258.609 327.297 258.597 327.281C258.523 327.179 258.25 326.662 258.25 325.25H252.25ZM258.938 333.312C261.575 333.312 264.228 331.8 266.698 329.83C269.285 327.768 272.197 324.77 275.422 320.929L270.828 317.071C267.72 320.771 265.101 323.43 262.958 325.139C260.699 326.94 259.425 327.312 258.938 327.312V333.312ZM275.421 320.93C281.95 313.164 287.919 304.171 293.337 293.97L288.038 291.155C282.789 301.037 277.05 309.669 270.829 317.07L275.421 320.93ZM293.629 293.152L298.129 270.715L292.246 269.535L287.746 291.973L293.629 293.152ZM295.357 273.12L308.607 272.37L308.268 266.38L295.018 267.13L295.357 273.12ZM305.521 268.674L300.896 287.924L306.729 289.326L311.354 270.076L305.521 268.674ZM300.87 288.041L294.745 318.916L300.63 320.084L306.755 289.209L300.87 288.041ZM294.746 318.912C293.802 323.63 293.25 327.062 293.25 328.875H299.25C299.25 327.771 299.656 324.954 300.629 320.088L294.746 318.912ZM293.25 328.875C293.25 330.603 293.651 332.457 294.982 333.879C296.348 335.338 298.194 335.812 299.938 335.812V329.812C299.582 329.812 299.397 329.764 299.33 329.74C299.279 329.722 299.314 329.726 299.362 329.777C299.464 329.887 299.25 329.772 299.25 328.875H293.25ZM299.938 335.812C302.996 335.812 306.237 334.175 309.469 331.789C312.8 329.329 316.577 325.729 320.787 321.075L316.338 317.05C312.256 321.562 308.783 324.837 305.906 326.961C302.93 329.158 301.004 329.812 299.938 329.812V335.812ZM315.617 318.492L314.492 324.305L320.383 325.445L321.508 319.633L315.617 318.492ZM315.243 322.83C306.247 332.482 298.816 336.562 292.875 336.562V342.562C301.434 342.562 310.378 336.851 319.632 326.92L315.243 322.83ZM292.875 336.562C290.348 336.562 288.997 335.911 288.242 335.125C287.466 334.317 286.812 332.838 286.812 330.125H280.812C280.812 333.704 281.67 336.944 283.914 339.281C286.18 341.641 289.36 342.562 292.875 342.562V336.562ZM286.812 330.125C286.812 328.329 287.254 325.049 288.253 320.093L282.372 318.907C281.371 323.867 280.812 327.671 280.812 330.125H286.812ZM288.253 320.095L291.378 304.658L285.497 303.467L282.372 318.905L288.253 320.095ZM326.938 377.812L324.801 375.706L321.576 378.978L325.868 380.615L326.938 377.812ZM335.562 369.062L337.079 366.474L335.065 365.294L333.426 366.956L335.562 369.062ZM362.312 366.5L359.956 364.643L359.95 364.651L359.944 364.658L362.312 366.5ZM371.125 344L368.21 343.293L368.209 343.296L371.125 344ZM380.812 304.062L383.728 304.77L384.627 301.062H380.812V304.062ZM380 304.062V301.062H378.132L377.308 302.739L380 304.062ZM365.125 328.5L367.472 330.368L367.478 330.361L365.125 328.5ZM346.312 333.125L343.583 334.369L343.592 334.39L343.602 334.411L346.312 333.125ZM342.375 314.875L339.398 315.242L339.399 315.252L342.375 314.875ZM339.375 290.562L342.352 290.195L342.352 290.19L339.375 290.562ZM321.125 288L318.181 287.423L323.474 289.866L321.125 288ZM322.375 281.625L319.981 279.818L319.564 280.369L319.431 281.048L322.375 281.625ZM352.062 292.062L355.039 291.688L355.038 291.676L352.062 292.062ZM354.688 312.938L351.711 313.312L351.712 313.32L354.688 312.938ZM370.375 313.312L372.887 314.953L372.903 314.928L372.919 314.902L370.375 313.312ZM384.312 290.125L386.886 291.666L387.124 291.269L387.231 290.818L384.312 290.125ZM389.062 270.125L388.894 267.13L386.661 267.256L386.144 269.432L389.062 270.125ZM402.375 269.375L405.26 270.198L406.417 266.143L402.206 266.38L402.375 269.375ZM396.812 288.875L393.928 288.052L393.913 288.105L393.899 288.158L396.812 288.875ZM385.875 333.312L388.788 334.031L388.788 334.029L385.875 333.312ZM368.125 367.75L366.031 365.601L366.026 365.607L368.125 367.75ZM329.074 379.919L337.699 371.169L333.426 366.956L324.801 375.706L329.074 379.919ZM334.046 371.651C338.624 374.333 343.563 375.688 348.812 375.688V369.688C344.646 369.688 340.751 368.626 337.079 366.474L334.046 371.651ZM348.812 375.688C355.415 375.688 360.837 373.284 364.681 368.342L359.944 364.658C357.371 367.966 353.793 369.688 348.812 369.688V375.688ZM364.669 368.357C368.35 363.685 371.404 355.629 374.041 344.704L368.209 343.296C365.596 354.121 362.775 361.065 359.956 364.643L364.669 368.357ZM374.04 344.707L383.728 304.77L377.897 303.355L368.21 343.293L374.04 344.707ZM380.812 301.062H380V307.062H380.812V301.062ZM377.308 302.739C372.495 312.528 367.644 320.478 362.772 326.639L367.478 330.361C372.689 323.772 377.755 315.43 382.692 305.386L377.308 302.739ZM362.778 326.632C360.326 329.712 358.231 331.893 356.491 333.278C354.678 334.721 353.622 335 353.188 335V341C355.67 341 358.062 339.696 360.227 337.972C362.467 336.19 364.883 333.621 367.472 330.368L362.778 326.632ZM353.188 335C352.234 335 351.519 334.757 350.923 334.334C350.298 333.891 349.634 333.127 349.023 331.839L343.602 334.411C344.533 336.373 345.786 338.047 347.452 339.228C349.148 340.431 351.099 341 353.188 341V335ZM349.042 331.881C347.753 329.051 346.478 323.386 345.351 314.498L339.399 315.252C340.522 324.114 341.872 330.616 343.583 334.369L349.042 331.881ZM345.352 314.508L342.352 290.195L336.398 290.93L339.398 315.242L345.352 314.508ZM342.352 290.19C341.779 285.608 340.984 281.907 339.874 279.273C338.866 276.88 337.012 274.062 333.688 274.062V280.062C333.029 280.062 333.457 279.495 334.345 281.602C335.131 283.468 335.846 286.517 336.398 290.935L342.352 290.19ZM333.688 274.062C332.361 274.062 331.113 274.52 330.027 275.105C328.919 275.701 327.787 276.535 326.639 277.534C324.346 279.531 321.72 282.427 318.776 286.134L323.474 289.866C326.321 286.281 328.685 283.709 330.579 282.059C331.525 281.236 332.287 280.702 332.872 280.388C333.478 280.061 333.722 280.062 333.688 280.062V274.062ZM324.069 288.577L325.319 282.202L319.431 281.048L318.181 287.423L324.069 288.577ZM324.769 283.432C331.203 274.909 336.609 271.625 340.938 271.625V265.625C333.6 265.625 326.63 271.008 319.981 279.818L324.769 283.432ZM340.938 271.625C342.144 271.625 342.992 271.892 343.617 272.286C344.241 272.681 344.84 273.327 345.35 274.406L350.775 271.844C349.868 269.923 348.572 268.319 346.821 267.214C345.071 266.108 343.064 265.625 340.938 265.625V271.625ZM345.35 274.406C345.904 275.58 346.535 277.63 347.19 280.729C347.834 283.78 348.468 287.68 349.087 292.449L355.038 291.676C354.407 286.82 353.749 282.751 353.06 279.489C352.382 276.276 351.637 273.67 350.775 271.844L345.35 274.406ZM349.086 292.437L351.711 313.312L357.664 312.563L355.039 291.688L349.086 292.437ZM351.712 313.32C352.202 317.131 352.878 320.253 353.832 322.501C354.684 324.506 356.346 327.125 359.438 327.125V321.125C360.321 321.125 360.087 321.88 359.355 320.156C358.726 318.674 358.132 316.202 357.663 312.555L351.712 313.32ZM359.438 327.125C362.004 327.125 364.315 325.437 366.218 323.555C368.26 321.537 370.483 318.633 372.887 314.953L367.863 311.672C365.558 315.201 363.604 317.703 362 319.288C361.2 320.079 360.558 320.571 360.072 320.853C359.579 321.138 359.388 321.125 359.438 321.125V327.125ZM372.919 314.902C373.772 313.537 378.441 305.769 386.886 291.666L381.739 288.584C373.267 302.731 368.644 310.421 367.831 311.723L372.919 314.902ZM387.231 290.818L391.981 270.818L386.144 269.432L381.394 289.432L387.231 290.818ZM389.231 273.12L402.544 272.37L402.206 266.38L388.894 267.13L389.231 273.12ZM399.49 268.552L393.928 288.052L399.697 289.698L405.26 270.198L399.49 268.552ZM393.899 288.158L382.962 332.596L388.788 334.029L399.726 289.592L393.899 288.158ZM382.962 332.594C379.341 347.284 373.634 358.194 366.031 365.601L370.219 369.899C378.866 361.473 384.993 349.424 388.788 334.031L382.962 332.594ZM366.026 365.607C358.527 372.951 349.374 376.625 338.375 376.625V382.625C350.876 382.625 361.556 378.382 370.224 369.893L366.026 365.607ZM338.375 376.625C334.173 376.625 330.743 376.054 328.007 375.01L325.868 380.615C329.465 381.988 333.66 382.625 338.375 382.625V376.625ZM65.125 512L63.0108 509.872L58.128 514.722L65.0047 514.998L65.125 512ZM74.4375 502.75V499.75H73.2008L72.3233 500.622L74.4375 502.75ZM75.625 502.75L75.6947 499.751L75.6599 499.75H75.625V502.75ZM78.3125 502.812L78.2428 505.812L78.2776 505.812H78.3125V502.812ZM89.0625 497.938L91.5291 499.645L91.5342 499.638L91.5392 499.63L89.0625 497.938ZM95.4375 478.062L98.3788 478.653L98.3804 478.645L95.4375 478.062ZM106.062 424.375L109.005 424.957L109.714 421.375H106.062V424.375ZM85.25 431.312L87.2141 433.58L87.2155 433.579L85.25 431.312ZM77.3125 449.312H74.3125V449.381L74.3156 449.449L77.3125 449.312ZM77.375 450.688L78.6777 453.39L80.4618 452.53L80.3719 450.551L77.375 450.688ZM65.1875 456.562L62.1996 456.293L61.7253 461.562L66.4902 459.265L65.1875 456.562ZM80.25 428.312L81.906 430.814L81.9141 430.809L80.25 428.312ZM149.5 423.75L148.135 426.421L148.146 426.427L148.158 426.433L149.5 423.75ZM137.562 467.125L138.911 469.805L138.919 469.801L138.927 469.797L137.562 467.125ZM112.625 472.25L110.067 470.682L107.268 475.25H112.625V472.25ZM115 468.375V465.375H113.32L112.442 466.807L115 468.375ZM119.375 423.312V420.312H116.913L116.433 422.728L119.375 423.312ZM109.312 473.938L106.37 473.353L106.369 473.358L109.312 473.938ZM88.625 503.812L87.0108 501.284L78.6731 506.606L88.5627 506.812L88.625 503.812ZM112.688 504.312L114.882 506.358L119.456 501.452L112.75 501.313L112.688 504.312ZM104.062 513.562L103.942 516.56L105.318 516.615L106.257 515.608L104.062 513.562ZM67.2392 514.128L76.5517 504.878L72.3233 500.622L63.0108 509.872L67.2392 514.128ZM74.4375 505.75H75.625V499.75H74.4375V505.75ZM75.5553 505.749L78.2428 505.812L78.3822 499.813L75.6947 499.751L75.5553 505.749ZM78.3125 505.812C83.943 505.812 88.5805 503.904 91.5291 499.645L86.5959 496.23C85.0445 498.471 82.5154 499.812 78.3125 499.812V505.812ZM91.5392 499.63C94.1758 495.773 96.386 488.576 98.3788 478.653L92.4962 477.472C90.489 487.466 88.4492 493.518 86.5858 496.245L91.5392 499.63ZM98.3804 478.645L109.005 424.957L103.12 423.793L92.4946 477.48L98.3804 478.645ZM106.062 421.375C96.9572 421.375 89.2723 423.854 83.2845 429.046L87.2155 433.579C91.8944 429.521 98.0844 427.375 106.062 427.375V421.375ZM83.2859 429.045C77.2931 434.235 74.3125 441.084 74.3125 449.312H80.3125C80.3125 442.707 82.6235 437.556 87.2141 433.58L83.2859 429.045ZM74.3156 449.449L74.3781 450.824L80.3719 450.551L80.3094 449.176L74.3156 449.449ZM76.0723 447.985L63.8848 453.86L66.4902 459.265L78.6777 453.39L76.0723 447.985ZM68.1754 456.832C69.2804 444.558 73.96 436.074 81.906 430.814L78.594 425.811C68.79 432.301 63.4279 442.65 62.1996 456.293L68.1754 456.832ZM81.9141 430.809C90.0538 425.382 102.982 422.438 121.188 422.438V416.438C102.559 416.438 88.1962 419.41 78.5859 425.816L81.9141 430.809ZM121.188 422.438C134.374 422.438 143.189 423.893 148.135 426.421L150.865 421.079C144.561 417.857 134.501 416.438 121.188 416.438V422.438ZM148.158 426.433C150.555 427.632 152.216 429.16 153.299 430.974C154.386 432.797 155 435.096 155 438H161C161 434.237 160.197 430.828 158.451 427.901C156.7 424.965 154.111 422.701 150.842 421.067L148.158 426.433ZM155 438C155 442.572 153.346 447.42 149.729 452.593L154.646 456.032C158.779 450.121 161 444.095 161 438H155ZM149.729 452.593C146.128 457.743 141.625 461.682 136.198 464.453L138.927 469.797C145.25 466.568 150.497 461.965 154.646 456.032L149.729 452.593ZM136.214 464.445C129.898 467.623 122.621 469.25 114.312 469.25V475.25C123.421 475.25 131.644 473.461 138.911 469.805L136.214 464.445ZM114.312 469.25H112.625V475.25H114.312V469.25ZM115.183 473.818L117.558 469.943L112.442 466.807L110.067 470.682L115.183 473.818ZM115 471.375H116.125V465.375H115V471.375ZM116.125 471.375C124.852 471.375 132.325 468.482 138.338 462.654L134.162 458.346C129.341 463.018 123.398 465.375 116.125 465.375V471.375ZM138.338 462.654C144.359 456.819 147.375 449.511 147.375 440.938H141.375C141.375 447.947 138.975 453.681 134.162 458.346L138.338 462.654ZM147.375 440.938C147.375 434.258 144.948 428.858 139.854 425.267C134.951 421.811 127.969 420.312 119.375 420.312V426.312C127.447 426.312 132.965 427.752 136.396 430.171C139.636 432.454 141.375 435.867 141.375 440.938H147.375ZM116.433 422.728L106.37 473.353L112.255 474.522L122.317 423.897L116.433 422.728ZM106.369 473.358C104.033 485.232 97.6383 494.499 87.0108 501.284L90.2392 506.341C102.195 498.709 109.592 488.06 112.256 474.517L106.369 473.358ZM88.5627 506.812L112.625 507.312L112.75 501.313L88.6873 500.813L88.5627 506.812ZM110.493 502.267L101.868 511.517L106.257 515.608L114.882 506.358L110.493 502.267ZM104.183 510.565L65.2453 509.002L65.0047 514.998L103.942 516.56L104.183 510.565ZM160.812 512.75L157.896 512.049L156.952 515.974L160.983 515.745L160.812 512.75ZM165.438 493.5L168.354 494.201L168.369 494.142L168.38 494.083L165.438 493.5ZM174 450.312L171.058 449.727L171.057 449.729L174 450.312ZM190.938 415.125L188.806 413.014L188.806 413.014L190.938 415.125ZM232.562 403.812L234.729 405.888L238.269 402.193L233.315 400.909L232.562 403.812ZM224 412.75L222.762 415.483L224.697 416.359L226.166 414.825L224 412.75ZM196.562 416.688L199.025 418.401L199.032 418.391L196.562 416.688ZM187.562 444.125L190.505 444.71L190.506 444.706L187.562 444.125ZM180.812 478.062L177.87 477.477L177.157 481.062H180.812V478.062ZM181.812 478.062V481.062H183.693L184.512 479.37L181.812 478.062ZM199.438 452.375L201.538 454.517L201.545 454.51L199.438 452.375ZM227 463L224.06 462.405L224.058 462.415L227 463ZM220.938 493.5L223.879 494.088L223.88 494.085L220.938 493.5ZM241.812 493.062L244.758 493.633L246.811 483.024L239.583 491.056L241.812 493.062ZM240.688 498.875L242.882 500.92L243.469 500.29L243.633 499.445L240.688 498.875ZM208.562 493.5L205.621 492.912L205.618 492.923L205.616 492.935L208.562 493.5ZM214.688 462.875L217.629 463.463L217.631 463.453L217.633 463.443L214.688 462.875ZM178.5 489.688L175.884 488.22L175.653 488.631L175.559 489.094L178.5 489.688ZM174 512L174.17 514.995L176.483 514.864L176.941 512.593L174 512ZM163.729 513.451L168.354 494.201L162.521 492.799L157.896 512.049L163.729 513.451ZM168.38 494.083L176.943 450.896L171.057 449.729L162.495 492.917L168.38 494.083ZM176.942 450.898C179.862 436.218 185.301 425.083 193.069 417.236L188.806 413.014C179.991 421.917 174.138 434.241 171.058 449.727L176.942 450.898ZM193.069 417.236C200.835 409.392 210.191 405.5 221.312 405.5V399.5C208.601 399.5 197.706 404.025 188.806 413.014L193.069 417.236ZM221.312 405.5C225.228 405.5 228.72 405.916 231.81 406.716L233.315 400.909C229.655 399.959 225.647 399.5 221.312 399.5V405.5ZM230.396 401.737L221.834 410.675L226.166 414.825L234.729 405.888L230.396 401.737ZM225.238 410.017C220.165 407.719 215.555 406.438 211.5 406.438V412.438C214.362 412.438 218.085 413.364 222.762 415.483L225.238 410.017ZM211.5 406.438C204.036 406.438 198.065 409.225 194.093 414.984L199.032 418.391C201.727 414.484 205.714 412.438 211.5 412.438V406.438ZM194.1 414.974C190.373 420.332 187.286 430.044 184.619 443.544L190.506 444.706C193.172 431.206 196.086 422.626 199.025 418.401L194.1 414.974ZM184.62 443.54L177.87 477.477L183.755 478.648L190.505 444.71L184.62 443.54ZM180.812 481.062H181.812V475.062H180.812V481.062ZM184.512 479.37C189.57 468.93 195.26 460.676 201.538 454.517L197.337 450.233C190.448 456.991 184.389 465.862 179.113 476.755L184.512 479.37ZM201.545 454.51C207.911 448.225 213.292 445.625 217.75 445.625V439.625C210.958 439.625 204.131 443.525 197.33 450.24L201.545 454.51ZM217.75 445.625C220.645 445.625 222.288 446.41 223.262 447.484C224.286 448.613 225.062 450.602 225.062 454H231.062C231.062 449.815 230.12 446.116 227.707 443.454C225.243 440.736 221.73 439.625 217.75 439.625V445.625ZM225.062 454C225.062 456.235 224.744 459.025 224.06 462.405L229.94 463.595C230.673 459.975 231.062 456.765 231.062 454H225.062ZM224.058 462.415L217.995 492.915L223.88 494.085L229.942 463.585L224.058 462.415ZM217.996 492.912C217.052 497.63 216.5 501.062 216.5 502.875H222.5C222.5 501.771 222.906 498.954 223.879 494.088L217.996 492.912ZM216.5 502.875C216.5 504.603 216.901 506.457 218.232 507.879C219.598 509.338 221.444 509.812 223.188 509.812V503.812C222.832 503.812 222.647 503.764 222.58 503.74C222.529 503.722 222.564 503.726 222.612 503.777C222.714 503.887 222.5 503.772 222.5 502.875H216.5ZM223.188 509.812C226.263 509.812 229.511 508.18 232.751 505.789C236.084 503.327 239.852 499.725 244.042 495.069L239.583 491.056C235.523 495.566 232.062 498.839 229.187 500.961C226.218 503.153 224.279 503.812 223.188 503.812V509.812ZM238.867 492.492L237.742 498.305L243.633 499.445L244.758 493.633L238.867 492.492ZM238.493 496.83C229.497 506.482 222.066 510.562 216.125 510.562V516.562C224.684 516.562 233.628 510.851 242.882 500.92L238.493 496.83ZM216.125 510.562C213.625 510.562 212.291 509.914 211.546 509.133C210.775 508.325 210.125 506.843 210.125 504.125H204.125C204.125 507.699 204.975 510.936 207.204 513.274C209.459 515.638 212.625 516.562 216.125 516.562V510.562ZM210.125 504.125C210.125 502.358 210.55 499.068 211.509 494.065L205.616 492.935C204.659 497.932 204.125 501.726 204.125 504.125H210.125ZM211.504 494.088L217.629 463.463L211.746 462.287L205.621 492.912L211.504 494.088ZM217.633 463.443C218.112 460.962 218.375 458.759 218.375 456.875H212.375C212.375 458.241 212.18 460.038 211.742 462.307L217.633 463.443ZM218.375 456.875C218.375 454.905 218.026 452.882 216.848 451.292C215.546 449.534 213.621 448.812 211.625 448.812V454.812C211.915 454.812 212.027 454.861 212.035 454.865C212.039 454.867 212.032 454.864 212.022 454.856C212.012 454.848 212.014 454.847 212.027 454.864C212.099 454.962 212.375 455.47 212.375 456.875H218.375ZM211.625 448.812C208.847 448.812 206.095 449.914 203.439 451.683C200.771 453.459 198.009 456.035 195.148 459.306C189.427 465.848 183.007 475.524 175.884 488.22L181.116 491.155C188.16 478.601 194.344 469.34 199.664 463.256C202.324 460.215 204.693 458.056 206.764 456.677C208.848 455.289 210.444 454.812 211.625 454.812V448.812ZM175.559 489.094L171.059 511.407L176.941 512.593L181.441 490.281L175.559 489.094ZM173.83 509.005L160.642 509.755L160.983 515.745L174.17 514.995L173.83 509.005ZM253 507.188L250.708 509.123L250.718 509.135L250.729 509.147L253 507.188ZM261.188 457.938L263.425 459.936L263.429 459.932L261.188 457.938ZM305.188 448.875L302.958 450.882L305.188 448.875ZM297.188 498.562L299.408 500.58L299.412 500.575L297.188 498.562ZM290.062 496.25L287.481 494.722L287.478 494.727L290.062 496.25ZM268.375 460.188L265.784 458.675L265.782 458.679L268.375 460.188ZM266.688 510.562C262.13 510.562 258.387 508.839 255.271 505.228L250.729 509.147C254.947 514.036 260.329 516.562 266.688 516.562V510.562ZM255.292 505.252C252.186 501.574 250.562 496.955 250.562 491.188H244.562C244.562 498.17 246.564 504.218 250.708 509.123L255.292 505.252ZM250.562 491.188C250.562 480.026 254.761 469.633 263.425 459.936L258.95 455.939C249.447 466.575 244.562 478.349 244.562 491.188H250.562ZM263.429 459.932C272.111 450.174 281.247 445.625 290.875 445.625V439.625C279.086 439.625 268.431 445.284 258.946 455.943L263.429 459.932ZM290.875 445.625C295.848 445.625 299.798 447.371 302.958 450.882L307.417 446.868C303.077 442.046 297.485 439.625 290.875 439.625V445.625ZM302.958 450.882C306.137 454.414 307.812 458.975 307.812 464.812H313.812C313.812 457.733 311.738 451.669 307.417 446.868L302.958 450.882ZM307.812 464.812C307.812 476.46 303.594 487.008 294.963 496.55L299.412 500.575C308.948 490.034 313.812 478.082 313.812 464.812H307.812ZM294.967 496.545C286.328 506.056 276.923 510.562 266.688 510.562V516.562C278.952 516.562 289.88 511.069 299.408 500.58L294.967 496.545ZM273.812 511.125C281.506 511.125 287.728 506.118 292.647 497.773L287.478 494.727C283.064 502.215 278.453 505.125 273.812 505.125V511.125ZM292.644 497.778C297.662 489.297 300.125 479.526 300.125 468.562H294.125C294.125 478.599 291.88 487.287 287.481 494.722L292.644 497.778ZM300.125 468.562C300.125 461.459 299.059 455.628 296.53 451.484C293.853 447.099 289.701 444.875 284.5 444.875V450.875C287.716 450.875 289.876 452.099 291.408 454.61C293.087 457.361 294.125 461.874 294.125 468.562H300.125ZM284.5 444.875C276.942 444.875 270.775 450.125 265.784 458.675L270.966 461.7C275.558 453.833 280.142 450.875 284.5 450.875V444.875ZM265.782 458.679C260.743 467.342 258.25 477.079 258.25 487.812H264.25C264.25 478.046 266.507 469.366 270.968 461.696L265.782 458.679ZM258.25 487.812C258.25 494.795 259.312 500.539 261.839 504.625C264.513 508.949 268.651 511.125 273.812 511.125V505.125C270.599 505.125 268.456 503.916 266.942 501.469C265.282 498.784 264.25 494.371 264.25 487.812H258.25ZM326.438 512.75L323.521 512.049L322.577 515.974L326.608 515.745L326.438 512.75ZM331.062 493.5L333.979 494.201L333.993 494.143L334.005 494.084L331.062 493.5ZM337.188 462.625L334.246 462.037L334.245 462.041L337.188 462.625ZM316.312 463.062L313.368 462.486L311.314 472.984L318.528 465.086L316.312 463.062ZM317.438 457.312L315.238 455.272L314.657 455.898L314.493 456.736L317.438 457.312ZM349.562 462.625L352.505 463.209L352.507 463.202L352.508 463.194L349.562 462.625ZM346.5 478.062L343.557 477.479L342.846 481.062H346.5V478.062ZM347.438 478.062V481.062H349.311L350.133 479.379L347.438 478.062ZM365.062 452.375L367.17 454.51L367.17 454.51L365.062 452.375ZM392.625 463L389.683 462.412L389.683 462.415L392.625 463ZM386.562 493.5L383.62 492.915L383.62 492.917L386.562 493.5ZM407.5 493.062L410.439 493.663L412.636 482.913L405.275 491.05L407.5 493.062ZM406.312 498.875L408.512 500.915L409.084 500.299L409.252 499.475L406.312 498.875ZM374.25 493.5L377.192 494.088L377.193 494.083L374.25 493.5ZM380.312 462.875L377.377 462.257L377.373 462.275L377.37 462.292L380.312 462.875ZM344.188 489.688L341.569 488.223L341.342 488.63L341.248 489.086L344.188 489.688ZM339.625 512L339.795 514.995L342.101 514.864L342.564 512.601L339.625 512ZM329.354 513.451L333.979 494.201L328.146 492.799L323.521 512.049L329.354 513.451ZM334.005 494.084L340.13 463.209L334.245 462.041L328.12 492.916L334.005 494.084ZM340.129 463.213C341.073 458.495 341.625 455.063 341.625 453.25H335.625C335.625 454.354 335.219 457.171 334.246 462.037L340.129 463.213ZM341.625 453.25C341.625 451.532 341.219 449.686 339.876 448.276C338.507 446.837 336.668 446.375 334.938 446.375V452.375C335.298 452.375 335.487 452.423 335.559 452.449C335.615 452.468 335.581 452.465 335.53 452.412C335.417 452.293 335.625 452.385 335.625 453.25H341.625ZM334.938 446.375C331.899 446.375 328.669 448.008 325.442 450.379C322.114 452.826 318.328 456.407 314.097 461.039L318.528 465.086C322.631 460.593 326.116 457.331 328.995 455.214C331.977 453.023 333.892 452.375 334.938 452.375V446.375ZM319.257 463.639L320.382 457.889L314.493 456.736L313.368 462.486L319.257 463.639ZM319.637 459.353C328.585 449.707 336.017 445.625 342 445.625V439.625C333.4 439.625 324.457 445.335 315.238 455.272L319.637 459.353ZM342 445.625C344.506 445.625 345.842 446.271 346.586 447.046C347.352 447.844 348 449.307 348 452H354C354 448.443 353.148 445.218 350.914 442.891C348.658 440.541 345.494 439.625 342 439.625V445.625ZM348 452C348 453.809 347.575 457.1 346.617 462.056L352.508 463.194C353.467 458.234 354 454.441 354 452H348ZM346.62 462.041L343.557 477.479L349.443 478.646L352.505 463.209L346.62 462.041ZM346.5 481.062H347.438V475.062H346.5V481.062ZM350.133 479.379C355.234 468.932 360.928 460.673 367.17 454.51L362.955 450.24C356.114 456.994 350.057 465.859 344.742 476.746L350.133 479.379ZM367.17 454.51C373.53 448.23 378.933 445.625 383.438 445.625V439.625C376.608 439.625 369.761 443.52 362.955 450.24L367.17 454.51ZM383.438 445.625C386.306 445.625 387.932 446.407 388.896 447.477C389.914 448.607 390.688 450.598 390.688 454H396.688C396.688 449.819 395.752 446.122 393.354 443.461C390.902 440.739 387.402 439.625 383.438 439.625V445.625ZM390.688 454C390.688 456.192 390.369 458.983 389.683 462.412L395.567 463.588C396.298 459.934 396.688 456.724 396.688 454H390.688ZM389.683 462.415L383.62 492.915L389.505 494.085L395.567 463.585L389.683 462.415ZM383.62 492.917C382.677 497.669 382.125 501.105 382.125 502.875H388.125C388.125 501.812 388.531 498.998 389.505 494.083L383.62 492.917ZM382.125 502.875C382.125 504.603 382.526 506.457 383.857 507.879C385.223 509.338 387.069 509.812 388.812 509.812V503.812C388.457 503.812 388.272 503.764 388.205 503.74C388.154 503.722 388.189 503.726 388.237 503.777C388.339 503.887 388.125 503.772 388.125 502.875H382.125ZM388.812 509.812C391.886 509.812 395.139 508.181 398.387 505.791C401.731 503.331 405.514 499.73 409.725 495.075L405.275 491.05C401.194 495.561 397.717 498.835 394.831 500.959C391.85 503.152 389.906 503.812 388.812 503.812V509.812ZM404.561 492.462L403.373 498.275L409.252 499.475L410.439 493.663L404.561 492.462ZM404.113 496.835C395.165 506.481 387.733 510.562 381.75 510.562V516.562C390.35 516.562 399.293 510.853 408.512 500.915L404.113 496.835ZM381.75 510.562C379.25 510.562 377.916 509.914 377.171 509.133C376.4 508.325 375.75 506.843 375.75 504.125H369.75C369.75 507.699 370.6 510.936 372.829 513.274C375.084 515.638 378.25 516.562 381.75 516.562V510.562ZM375.75 504.125C375.75 502.371 376.191 499.093 377.192 494.088L371.308 492.912C370.309 497.907 369.75 501.712 369.75 504.125H375.75ZM377.193 494.083L383.255 463.458L377.37 462.292L371.307 492.917L377.193 494.083ZM383.248 463.493C383.772 461.004 384.062 458.782 384.062 456.875H378.062C378.062 458.218 377.853 459.996 377.377 462.257L383.248 463.493ZM384.062 456.875C384.062 454.905 383.713 452.882 382.536 451.292C381.233 449.534 379.309 448.812 377.312 448.812V454.812C377.603 454.812 377.715 454.861 377.722 454.865C377.726 454.867 377.719 454.864 377.709 454.856C377.7 454.848 377.702 454.847 377.714 454.864C377.787 454.962 378.062 455.47 378.062 456.875H384.062ZM377.312 448.812C374.528 448.812 371.769 449.911 369.105 451.681C366.431 453.458 363.666 456.034 360.804 459.306C355.082 465.849 348.672 475.526 341.569 488.223L346.806 491.152C353.828 478.599 360.001 469.339 365.321 463.256C367.98 460.216 370.35 458.058 372.426 456.678C374.512 455.292 376.118 454.812 377.312 454.812V448.812ZM341.248 489.086L336.686 511.399L342.564 512.601L347.127 490.289L341.248 489.086ZM339.455 509.005L326.267 509.755L326.608 515.745L339.795 514.995L339.455 509.005ZM467.938 494.938L470.882 495.511L472.286 488.304L466.237 492.466L467.938 494.938ZM467 499.75L468.712 502.214L469.712 501.519L469.945 500.324L467 499.75ZM418.688 507.375L416.435 509.357L416.446 509.369L416.457 509.381L418.688 507.375ZM426.688 458.125L428.95 460.095L428.954 460.091L426.688 458.125ZM464.5 446.312L462.289 448.34L464.5 446.312ZM426.438 485.312V482.312H423.503L423.438 485.246L426.438 485.312ZM426.375 488.125L423.376 488.058L423.375 488.092V488.125H426.375ZM426.562 481.438L423.579 481.127L423.205 484.717L426.803 484.428L426.562 481.438ZM448.438 474.25L450.268 476.627L450.273 476.623L450.279 476.618L448.438 474.25ZM434.875 458.875L437.328 460.603L437.333 460.595L434.875 458.875ZM464.993 494.364L464.055 499.176L469.945 500.324L470.882 495.511L464.993 494.364ZM465.288 497.286C452.215 506.372 441.543 510.562 433.125 510.562V516.562C443.373 516.562 455.285 511.545 468.712 502.214L465.288 497.286ZM433.125 510.562C427.995 510.562 424.016 508.815 420.918 505.369L416.457 509.381C420.775 514.185 426.421 516.562 433.125 516.562V510.562ZM420.94 505.393C417.842 501.873 416.188 497.247 416.188 491.25H410.188C410.188 498.42 412.2 504.544 416.435 509.357L420.94 505.393ZM416.188 491.25C416.188 480.342 420.342 469.979 428.95 460.095L424.425 456.155C415.033 466.938 410.188 478.658 410.188 491.25H416.188ZM428.954 460.091C437.591 450.134 446.434 445.562 455.5 445.562V439.562C444.149 439.562 433.784 445.366 424.421 456.159L428.954 460.091ZM455.5 445.562C458.455 445.562 460.622 446.521 462.289 448.34L466.711 444.285C463.795 441.104 459.962 439.562 455.5 439.562V445.562ZM462.289 448.34C463.984 450.189 464.938 452.67 464.938 456.062H470.938C470.938 451.455 469.599 447.436 466.711 444.285L462.289 448.34ZM464.938 456.062C464.938 462.843 461.552 468.89 453.96 474.235L457.415 479.14C466.157 472.985 470.938 465.282 470.938 456.062H464.938ZM453.96 474.235C446.366 479.582 437.239 482.312 426.438 482.312V488.312C438.303 488.312 448.676 485.293 457.415 479.14L453.96 474.235ZM423.438 485.246L423.376 488.058L429.374 488.192L429.437 485.379L423.438 485.246ZM423.375 488.125C423.375 494.486 424.525 499.8 427.299 503.586C430.201 507.545 434.533 509.375 439.75 509.375V503.375C436.05 503.375 433.695 502.163 432.138 500.039C430.454 497.741 429.375 493.93 429.375 488.125H423.375ZM439.75 509.375C448.37 509.375 458.384 505.152 469.638 497.409L466.237 492.466C455.325 499.973 446.547 503.375 439.75 503.375V509.375ZM426.803 484.428C436.486 483.65 444.405 481.14 450.268 476.627L446.607 471.873C441.97 475.443 435.306 477.725 426.322 478.447L426.803 484.428ZM450.279 476.618C456.235 471.986 459.312 465.853 459.312 458.438H453.312C453.312 463.938 451.14 468.347 446.596 471.882L450.279 476.618ZM459.312 458.438C459.312 454.977 458.701 451.839 457.006 449.504C455.182 446.99 452.458 445.875 449.375 445.875V451.875C450.917 451.875 451.661 452.354 452.15 453.027C452.768 453.879 453.312 455.523 453.312 458.438H459.312ZM449.375 445.875C442.906 445.875 437.288 450.196 432.417 457.155L437.333 460.595C441.795 454.221 445.844 451.875 449.375 451.875V445.875ZM432.422 457.147C427.447 464.211 424.504 472.224 423.579 481.127L429.546 481.748C430.371 473.818 432.97 466.789 437.328 460.603L432.422 457.147ZM154.125 678.75L151.933 680.798L151.94 680.806L154.125 678.75ZM162.062 609.688L159.846 607.665L159.843 607.669L162.062 609.688ZM225.5 600.562L223.315 602.618L223.322 602.625L223.329 602.633L225.5 600.562ZM217.938 670L215.709 667.992L215.705 667.996L217.938 670ZM171.312 612.125L168.84 610.425L171.312 612.125ZM178.5 685.312C168.923 685.312 161.645 682.363 156.31 676.694L151.94 680.806C158.605 687.887 167.577 691.312 178.5 691.312V685.312ZM156.317 676.702C151 671.013 148.188 663.168 148.188 652.812H142.188C142.188 664.29 145.334 673.737 151.933 680.798L156.317 676.702ZM148.188 652.812C148.188 637.201 153.522 623.541 164.282 611.706L159.843 607.669C148.103 620.584 142.188 635.674 142.188 652.812H148.188ZM164.279 611.71C175.079 599.873 187.41 594.125 201.375 594.125V588.125C185.506 588.125 171.629 594.752 159.846 607.665L164.279 611.71ZM201.375 594.125C210.873 594.125 218.066 597.036 223.315 602.618L227.685 598.507C221.101 591.506 212.21 588.125 201.375 588.125V594.125ZM223.329 602.633C228.632 608.196 231.438 615.885 231.438 626.062H237.438C237.438 614.74 234.284 605.429 227.671 598.492L223.329 602.633ZM231.438 626.062C231.438 642.436 226.191 656.358 215.709 667.992L220.166 672.008C231.684 659.225 237.438 643.855 237.438 626.062H231.438ZM215.705 667.996C205.271 679.62 192.917 685.312 178.5 685.312V691.312C194.75 691.312 208.688 684.796 220.17 672.004L215.705 667.996ZM180.938 687.062C193.041 687.062 203.163 680.583 211.297 668.556L206.328 665.194C198.962 676.084 190.501 681.062 180.938 681.062V687.062ZM211.297 668.556C219.434 656.526 223.438 642.168 223.438 625.625H217.438C217.438 641.166 213.691 654.308 206.328 665.194L211.297 668.556ZM223.438 625.625C223.438 615.203 221.644 606.854 217.604 601.038C213.427 595.025 207.135 592.125 199.25 592.125V598.125C205.49 598.125 209.792 600.309 212.677 604.462C215.699 608.813 217.438 615.713 217.438 625.625H223.438ZM199.25 592.125C187.164 592.125 177.023 598.524 168.84 610.425L173.785 613.825C181.186 603.059 189.67 598.125 199.25 598.125V592.125ZM168.84 610.425C160.655 622.332 156.625 636.529 156.625 652.875H162.625C162.625 637.554 166.387 624.585 173.785 613.825L168.84 610.425ZM156.625 652.875C156.625 663.519 158.426 672.032 162.476 677.958C166.666 684.09 172.991 687.062 180.938 687.062V681.062C174.676 681.062 170.344 678.838 167.43 674.573C164.376 670.103 162.625 663.023 162.625 652.875H156.625ZM247.75 686.75L244.833 686.049L243.89 689.974L247.92 689.745L247.75 686.75ZM252.375 667.5L255.292 668.201L255.306 668.143L255.318 668.084L252.375 667.5ZM258.5 636.625L255.558 636.037L255.557 636.041L258.5 636.625ZM237.625 637.062L234.681 636.486L232.627 646.984L239.84 639.086L237.625 637.062ZM238.75 631.312L236.551 629.272L235.97 629.898L235.806 630.736L238.75 631.312ZM270.875 636.625L273.818 637.209L273.819 637.202L273.82 637.194L270.875 636.625ZM267.812 652.062L264.87 651.479L264.159 655.062H267.812V652.062ZM268.75 652.062V655.062H270.624L271.446 653.379L268.75 652.062ZM286.375 626.375L288.483 628.51L288.483 628.51L286.375 626.375ZM313.938 637L310.996 636.412L310.995 636.415L313.938 637ZM307.875 667.5L304.933 666.915L304.932 666.917L307.875 667.5ZM328.812 667.062L331.752 667.663L333.948 656.913L326.588 665.05L328.812 667.062ZM327.625 672.875L329.824 674.915L330.396 674.299L330.564 673.475L327.625 672.875ZM295.562 667.5L298.504 668.088L298.505 668.083L295.562 667.5ZM301.625 636.875L298.689 636.257L298.686 636.275L298.682 636.292L301.625 636.875ZM265.5 663.688L262.882 662.223L262.654 662.63L262.561 663.086L265.5 663.688ZM260.938 686L261.108 688.995L263.414 688.864L263.877 686.601L260.938 686ZM250.667 687.451L255.292 668.201L249.458 666.799L244.833 686.049L250.667 687.451ZM255.318 668.084L261.443 637.209L255.557 636.041L249.432 666.916L255.318 668.084ZM261.442 637.213C262.385 632.495 262.938 629.063 262.938 627.25H256.938C256.938 628.354 256.531 631.171 255.558 636.037L261.442 637.213ZM262.938 627.25C262.938 625.532 262.531 623.686 261.189 622.276C259.82 620.837 257.981 620.375 256.25 620.375V626.375C256.61 626.375 256.8 626.423 256.872 626.449C256.927 626.468 256.893 626.465 256.842 626.412C256.729 626.293 256.938 626.385 256.938 627.25H262.938ZM256.25 620.375C253.212 620.375 249.982 622.008 246.755 624.379C243.426 626.826 239.64 630.407 235.41 635.039L239.84 639.086C243.943 634.593 247.428 631.331 250.308 629.214C253.289 627.023 255.205 626.375 256.25 626.375V620.375ZM240.569 637.639L241.694 631.889L235.806 630.736L234.681 636.486L240.569 637.639ZM240.949 633.353C249.898 623.707 257.329 619.625 263.312 619.625V613.625C254.712 613.625 245.769 619.335 236.551 629.272L240.949 633.353ZM263.312 619.625C265.818 619.625 267.154 620.271 267.898 621.046C268.664 621.844 269.312 623.307 269.312 626H275.312C275.312 622.443 274.461 619.218 272.227 616.891C269.971 614.541 266.807 613.625 263.312 613.625V619.625ZM269.312 626C269.312 627.809 268.887 631.1 267.93 636.056L273.82 637.194C274.779 632.234 275.312 628.441 275.312 626H269.312ZM267.932 636.041L264.87 651.479L270.755 652.646L273.818 637.209L267.932 636.041ZM267.812 655.062H268.75V649.062H267.812V655.062ZM271.446 653.379C276.547 642.932 282.24 634.673 288.483 628.51L284.267 624.24C277.426 630.994 271.37 639.859 266.054 650.746L271.446 653.379ZM288.483 628.51C294.843 622.23 300.246 619.625 304.75 619.625V613.625C297.921 613.625 291.074 617.52 284.267 624.24L288.483 628.51ZM304.75 619.625C307.619 619.625 309.244 620.407 310.209 621.477C311.227 622.607 312 624.598 312 628H318C318 623.819 317.065 620.122 314.666 617.461C312.214 614.739 308.714 613.625 304.75 613.625V619.625ZM312 628C312 630.192 311.682 632.983 310.996 636.412L316.879 637.588C317.61 633.934 318 630.724 318 628H312ZM310.995 636.415L304.933 666.915L310.817 668.085L316.88 637.585L310.995 636.415ZM304.932 666.917C303.99 671.669 303.438 675.105 303.438 676.875H309.438C309.438 675.812 309.843 672.998 310.818 668.083L304.932 666.917ZM303.438 676.875C303.438 678.603 303.838 680.457 305.17 681.879C306.536 683.338 308.381 683.812 310.125 683.812V677.812C309.769 677.812 309.585 677.764 309.518 677.74C309.467 677.722 309.501 677.726 309.549 677.777C309.651 677.887 309.438 677.772 309.438 676.875H303.438ZM310.125 683.812C313.199 683.812 316.452 682.181 319.7 679.791C323.043 677.331 326.826 673.73 331.037 669.075L326.588 665.05C322.507 669.561 319.03 672.835 316.144 674.959C313.163 677.152 311.218 677.812 310.125 677.812V683.812ZM325.873 666.462L324.686 672.275L330.564 673.475L331.752 667.663L325.873 666.462ZM325.426 670.835C316.477 680.481 309.046 684.562 303.062 684.562V690.562C311.663 690.562 320.606 684.853 329.824 674.915L325.426 670.835ZM303.062 684.562C300.562 684.562 299.229 683.914 298.484 683.133C297.713 682.325 297.062 680.843 297.062 678.125H291.062C291.062 681.699 291.912 684.936 294.141 687.274C296.396 689.638 299.563 690.562 303.062 690.562V684.562ZM297.062 678.125C297.062 676.371 297.503 673.093 298.504 668.088L292.621 666.912C291.622 671.907 291.062 675.712 291.062 678.125H297.062ZM298.505 668.083L304.568 637.458L298.682 636.292L292.62 666.917L298.505 668.083ZM304.561 637.493C305.085 635.004 305.375 632.782 305.375 630.875H299.375C299.375 632.218 299.165 633.996 298.689 636.257L304.561 637.493ZM305.375 630.875C305.375 628.905 305.026 626.882 303.848 625.292C302.546 623.534 300.621 622.812 298.625 622.812V628.812C298.915 628.812 299.027 628.861 299.035 628.865C299.039 628.867 299.032 628.864 299.022 628.856C299.012 628.848 299.014 628.847 299.027 628.864C299.099 628.962 299.375 629.47 299.375 630.875H305.375ZM298.625 622.812C295.84 622.812 293.081 623.911 290.418 625.681C287.744 627.458 284.978 630.034 282.117 633.306C276.395 639.849 269.984 649.526 262.882 662.223L268.118 665.152C275.141 652.599 281.314 643.339 286.633 637.256C289.292 634.216 291.662 632.058 293.738 630.678C295.825 629.292 297.43 628.812 298.625 628.812V622.812ZM262.561 663.086L257.998 685.399L263.877 686.601L268.439 664.289L262.561 663.086ZM260.767 683.005L247.58 683.755L247.92 689.745L261.108 688.995L260.767 683.005ZM389.25 668.938L392.195 669.511L393.599 662.304L387.55 666.466L389.25 668.938ZM388.312 673.75L390.025 676.214L391.024 675.519L391.257 674.324L388.312 673.75ZM340 681.375L337.748 683.357L337.758 683.369L337.769 683.381L340 681.375ZM348 632.125L350.262 634.095L350.266 634.091L348 632.125ZM385.812 620.312L383.601 622.34L385.812 620.312ZM347.75 659.312V656.312H344.816L344.751 659.246L347.75 659.312ZM347.688 662.125L344.688 662.058L344.688 662.092V662.125H347.688ZM347.875 655.438L344.891 655.127L344.518 658.717L348.115 658.428L347.875 655.438ZM369.75 648.25L371.58 650.627L371.586 650.623L371.592 650.618L369.75 648.25ZM356.188 632.875L358.64 634.603L358.645 634.595L356.188 632.875ZM386.305 668.364L385.368 673.176L391.257 674.324L392.195 669.511L386.305 668.364ZM386.6 671.286C373.528 680.372 362.856 684.562 354.438 684.562V690.562C364.686 690.562 376.597 685.545 390.025 676.214L386.6 671.286ZM354.438 684.562C349.308 684.562 345.329 682.815 342.231 679.369L337.769 683.381C342.088 688.185 347.734 690.562 354.438 690.562V684.562ZM342.252 679.393C339.154 675.873 337.5 671.247 337.5 665.25H331.5C331.5 672.42 333.512 678.544 337.748 683.357L342.252 679.393ZM337.5 665.25C337.5 654.342 341.654 643.979 350.262 634.095L345.738 630.155C336.346 640.938 331.5 652.658 331.5 665.25H337.5ZM350.266 634.091C358.904 624.134 367.747 619.562 376.812 619.562V613.562C365.461 613.562 355.096 619.366 345.734 630.159L350.266 634.091ZM376.812 619.562C379.768 619.562 381.934 620.521 383.601 622.34L388.024 618.285C385.107 615.104 381.274 613.562 376.812 613.562V619.562ZM383.601 622.34C385.297 624.189 386.25 626.67 386.25 630.062H392.25C392.25 625.455 390.912 621.436 388.024 618.285L383.601 622.34ZM386.25 630.062C386.25 636.843 382.864 642.89 375.273 648.235L378.727 653.14C387.469 646.985 392.25 639.282 392.25 630.062H386.25ZM375.273 648.235C367.678 653.582 358.552 656.312 347.75 656.312V662.312C359.615 662.312 369.988 659.293 378.727 653.14L375.273 648.235ZM344.751 659.246L344.688 662.058L350.687 662.192L350.749 659.379L344.751 659.246ZM344.688 662.125C344.688 668.486 345.837 673.8 348.612 677.586C351.513 681.545 355.846 683.375 361.062 683.375V677.375C357.363 677.375 355.008 676.163 353.451 674.039C351.767 671.741 350.688 667.93 350.688 662.125H344.688ZM361.062 683.375C369.682 683.375 379.696 679.152 390.95 671.409L387.55 666.466C376.637 673.973 367.859 677.375 361.062 677.375V683.375ZM348.115 658.428C357.798 657.65 365.717 655.14 371.58 650.627L367.92 645.873C363.283 649.443 356.619 651.725 347.635 652.447L348.115 658.428ZM371.592 650.618C377.547 645.986 380.625 639.853 380.625 632.438H374.625C374.625 637.938 372.453 642.347 367.908 645.882L371.592 650.618ZM380.625 632.438C380.625 628.977 380.013 625.84 378.319 623.504C376.495 620.99 373.77 619.875 370.688 619.875V625.875C372.23 625.875 372.974 626.354 373.462 627.027C374.08 627.879 374.625 629.523 374.625 632.438H380.625ZM370.688 619.875C364.218 619.875 358.601 624.196 353.73 631.155L358.645 634.595C363.108 628.221 367.157 625.875 370.688 625.875V619.875ZM353.735 631.147C348.76 638.211 345.817 646.224 344.891 655.127L350.859 655.748C351.683 647.818 354.282 640.789 358.64 634.603L353.735 631.147Z" fill="black" mask="url(#path-2-outside-1_1_27)"/>
</g>
<defs>
<filter id="filter0_d_1_27" x="39.125" y="245.5" width="428.812" height="464.812" filterUnits="userSpaceOnUse" color-interpolation-filters="sRGB">
<feFlood flood-opacity="0" result="BackgroundImageFix"/>
<feColorMatrix in="SourceAlpha" type="matrix" values="0 0 0 0 0 0 0 0 0 0 0 0 0 0 0 0 0 0 127 0" result="hardAlpha"/>
<feOffset dx="-22" dy="18"/>
<feGaussianBlur stdDeviation="2"/>
<feComposite in2="hardAlpha" operator="out"/>
<feColorMatrix type="matrix" values="0 0 0 0 0 0 0 0 0 0 0 0 0 0 0 0 0 0 0.25 0"/>
<feBlend mode="normal" in2="BackgroundImageFix" result="effect1_dropShadow_1_27"/>
<feBlend mode="normal" in="SourceGraphic" in2="effect1_dropShadow_1_27" result="shape"/>
</filter>
<linearGradient id="paint0_linear_1_27" x1="273.5" y1="0" x2="273.5" y2="1024" gradientUnits="userSpaceOnUse">
<stop stop-color="#D70019"/>
<stop offset="1" stop-color="#71000D"/>
</linearGradient>
</defs>
</svg>
