<svg width="24" height="24" viewBox="0 0 24 24" fill="none" xmlns="http://www.w3.org/2000/svg">
<path d="M23.5579 15.2203C23.5574 14.759 23.3786 14.3168 23.0606 13.9907C22.7426 13.6645 22.3115 13.481 21.8618 13.4805H19.2581C19.4792 13.1798 19.5986 12.8133 19.5982 12.4367V10.7119C19.5977 10.2506 19.4189 9.80843 19.1009 9.48227C18.7829 9.15612 18.3518 8.97266 17.9021 8.97214H15.2984C15.5195 8.67142 15.6389 8.30493 15.6385 7.92828V6.20351C15.638 5.74225 15.4592 5.30004 15.1412 4.97388C14.8232 4.64772 14.3921 4.46426 13.9424 4.46375H10.0155C9.56577 4.46426 9.13464 4.64772 8.81666 4.97388C8.49868 5.30004 8.31982 5.74225 8.31932 6.20351V7.92828C8.31893 8.30493 8.43835 8.67142 8.65945 8.97214H6.05576C5.60606 8.97266 5.17494 9.15612 4.85696 9.48227C4.53898 9.80843 4.36011 10.2506 4.35961 10.7119V12.4367C4.35923 12.8133 4.47865 13.1798 4.69974 13.4805H2.09605C1.64636 13.481 1.21523 13.6645 0.897248 13.9907C0.579268 14.3168 0.400406 14.759 0.399903 15.2203V16.9451C0.399521 17.3218 0.51894 17.6883 0.740037 17.989H0.739132C0.649163 17.989 0.562879 18.0256 0.499261 18.0909C0.435643 18.1561 0.399903 18.2446 0.399903 18.3369C0.399903 18.4292 0.435643 18.5177 0.499261 18.583C0.562879 18.6482 0.649163 18.6849 0.739132 18.6849H23.2187C23.3087 18.6849 23.395 18.6482 23.4586 18.583C23.5222 18.5177 23.5579 18.4292 23.5579 18.3369C23.5579 18.2446 23.5222 18.1561 23.4586 18.0909C23.395 18.0256 23.3087 17.989 23.2187 17.989H23.2178C23.4389 17.6883 23.5583 17.3218 23.5579 16.9451V15.2203ZM17.9021 9.66804C18.1719 9.66836 18.4306 9.77844 18.6214 9.97414C18.8121 10.1698 18.9195 10.4352 18.9198 10.7119V12.4367C18.9195 12.7134 18.8121 12.9788 18.6214 13.1744C18.4306 13.3701 18.1719 13.4802 17.9021 13.4805H13.9752C13.7054 13.4802 13.4467 13.3701 13.2559 13.1744C13.0651 12.9788 12.9578 12.7134 12.9575 12.4367V10.7119C12.9578 10.4352 13.0651 10.1698 13.2559 9.97414C13.4467 9.77844 13.7054 9.66836 13.9752 9.66804H17.9021ZM8.99778 6.20351C8.99809 5.92676 9.10541 5.66143 9.29619 5.46574C9.48698 5.27005 9.74565 5.15997 10.0155 5.15965H13.9424C14.2122 5.15997 14.4709 5.27005 14.6616 5.46574C14.8524 5.66143 14.9598 5.92676 14.9601 6.20351V7.92828C14.9598 8.20503 14.8524 8.47036 14.6616 8.66605C14.4709 8.86174 14.2122 8.97182 13.9424 8.97214H10.0155C9.74565 8.97182 9.48698 8.86174 9.29619 8.66605C9.10541 8.47036 8.99809 8.20503 8.99778 7.92828V6.20351ZM12.6192 13.4805H11.3386C11.5597 13.1798 11.6792 12.8133 11.6788 12.4367V10.7119C11.6792 10.3353 11.5597 9.96876 11.3386 9.66804H12.6192C12.3981 9.96876 12.2787 10.3353 12.2791 10.7119V12.4367C12.2787 12.8133 12.3981 13.1798 12.6192 13.4805ZM5.03807 10.7119C5.03838 10.4352 5.1457 10.1698 5.33649 9.97414C5.52727 9.77844 5.78594 9.66836 6.05576 9.66804H9.98267C10.2525 9.66836 10.5112 9.77844 10.7019 9.97414C10.8927 10.1698 11 10.4352 11.0004 10.7119V12.4367C11 12.7134 10.8927 12.9788 10.7019 13.1744C10.5112 13.3701 10.2525 13.4802 9.98267 13.4805H6.05576C5.78594 13.4802 5.52727 13.3701 5.33649 13.1744C5.1457 12.9788 5.03838 12.7134 5.03807 12.4367V10.7119ZM7.04065 16.9451C7.04034 17.2219 6.93302 17.4872 6.74223 17.6829C6.55145 17.8786 6.29278 17.9887 6.02296 17.989H2.09605C1.82624 17.9887 1.56756 17.8786 1.37678 17.6829C1.18599 17.4872 1.07867 17.2219 1.07836 16.9451V15.2203C1.07867 14.9435 1.18599 14.6782 1.37678 14.4825C1.56756 14.2868 1.82624 14.1768 2.09605 14.1764H6.02296C6.29278 14.1768 6.55145 14.2868 6.74223 14.4825C6.93302 14.6782 7.04034 14.9435 7.04065 15.2203V16.9451ZM8.65945 17.989H7.37897C7.60007 17.6883 7.71949 17.3218 7.71911 16.9451V15.2203C7.71949 14.8436 7.60007 14.4772 7.37897 14.1764H8.65945C8.43835 14.4772 8.31893 14.8436 8.31932 15.2203V16.9451C8.31893 17.3218 8.43835 17.6883 8.65945 17.989ZM14.9601 16.9451C14.9598 17.2219 14.8524 17.4872 14.6616 17.6829C14.4709 17.8786 14.2122 17.9887 13.9424 17.989H10.0155C9.74565 17.9887 9.48698 17.8786 9.29619 17.6829C9.10541 17.4872 8.99809 17.2219 8.99778 16.9451V15.2203C8.99809 14.9435 9.10541 14.6782 9.29619 14.4825C9.48698 14.2868 9.74565 14.1768 10.0155 14.1764H13.9424C14.2122 14.1768 14.4709 14.2868 14.6616 14.4825C14.8524 14.6782 14.9598 14.9435 14.9601 15.2203V16.9451ZM16.5789 17.989H15.2984C15.5195 17.6883 15.6389 17.3218 15.6385 16.9451V15.2203C15.6389 14.8436 15.5195 14.4772 15.2984 14.1764H16.5789C16.3578 14.4772 16.2383 14.8436 16.2387 15.2203V16.9451C16.2383 17.3218 16.3578 17.6883 16.5789 17.989ZM22.8795 16.9451C22.8792 17.2219 22.7718 17.4872 22.5811 17.6829C22.3903 17.8786 22.1316 17.9887 21.8618 17.989H17.9349C17.6651 17.9887 17.4064 17.8786 17.2156 17.6829C17.0248 17.4872 16.9175 17.2219 16.9172 16.9451V15.2203C16.9175 14.9435 17.0248 14.6782 17.2156 14.4825C17.4064 14.2868 17.6651 14.1768 17.9349 14.1764H21.8618C22.1316 14.1768 22.3903 14.2868 22.5811 14.4825C22.7718 14.6782 22.8792 14.9435 22.8795 15.2203V16.9451Z" fill="#272A33"/>
</svg>
